<svg width="68" height="64" viewBox="0 0 68 64" fill="none" xmlns="http://www.w3.org/2000/svg">
<path d="M45.6663 10.6667C46.9924 10.6667 48.2642 11.1935 49.2019 12.1312C50.1396 13.0688 50.6663 14.3406 50.6663 15.6667C50.6663 16.9928 50.1396 18.2645 49.2019 19.2022C48.2642 20.1399 46.9924 20.6667 45.6663 20.6667C44.3403 20.6667 43.0685 20.1399 42.1308 19.2022C41.1931 18.2645 40.6663 16.9928 40.6663 15.6667C40.6663 14.3406 41.1931 13.0688 42.1308 12.1312C43.0685 11.1935 44.3403 10.6667 45.6663 10.6667ZM40.6663 0.666687C36.2461 0.666687 32.0068 2.42263 28.8812 5.54824C25.7556 8.67385 23.9997 12.9131 23.9997 17.3334C23.9997 23 26.833 28 31.133 31C25.8663 31.5 19.933 32.7 13.9997 35.6667C3.99968 40.6667 0.666344 34 0.666344 34C0.666344 34 3.99968 64 23.9997 64H43.9997C43.9997 64 60.6663 64 60.6663 47.3334C60.6663 37.3334 50.6663 34 53.9997 27.3334C67.333 27.3334 67.333 15.6667 67.333 15.6667C63.9997 17.3334 59.8663 17.3334 57.333 16.1667C57.0219 11.9574 55.1316 8.02109 52.0408 5.14666C48.95 2.27224 44.8871 0.672023 40.6663 0.666687Z" fill="#FFC470"/>
</svg>
